<mxfile host="app.diagrams.net" modified="2023-04-05T13:59:12.428Z" agent="Mozilla/5.0 (Windows NT 10.0; Win64; x64) AppleWebKit/537.36 (KHTML, like Gecko) Chrome/101.0.4951.54 Safari/537.36" version="21.1.4" etag="dIJ1U3oDJiXr9pC2YFYb" type="github">
  <diagram name="第 1 页" id="TBwSNkKpuaDuldtCEH9o">
    <mxGraphModel>
      <root>
        <mxCell id="0" />
        <mxCell id="1" parent="0" />
      </root>
    </mxGraphModel>
  </diagram>
</mxfile>
